<svg width="30" height="30" viewBox="0 0 30 30" fill="none" xmlns="http://www.w3.org/2000/svg">
<path d="M27.72 14.1543L26.5586 11.6786C26.4339 11.4128 26.1544 11.2413 25.8457 11.2413H23.921C23.4906 11.2413 23.1417 11.5697 23.1417 11.9749V13.1312H22.543V12.1798C22.543 11.7746 22.1941 11.4462 21.7637 11.4462H19.6889V9.4446C19.6889 9.03939 19.34 8.71105 18.9096 8.71105H15.076V8.01251H18.9096C19.34 8.01251 19.6889 7.68408 19.6889 7.27896C19.6889 6.87375 19.34 6.54541 18.9096 6.54541H9.68398C9.2536 6.54541 8.90469 6.87375 8.90469 7.27896C8.90469 7.68408 9.2536 8.01251 9.68398 8.01251H13.5176V8.71105H9.68398C9.2536 8.71105 8.90469 9.03939 8.90469 9.4446V10.0543H7.19502C6.76464 10.0543 6.41572 10.3827 6.41572 10.7879V14.7243H5.34507V10.7879C5.34507 10.3827 4.99616 10.0543 4.56578 10.0543C4.1354 10.0543 3.78648 10.3828 3.78648 10.7879V20.1281C3.78648 20.5333 4.1354 20.8616 4.56578 20.8616C4.99616 20.8616 5.34507 20.5333 5.34507 20.1281V16.1914H6.41572V20.1281C6.41572 20.5333 6.76464 20.8616 7.19502 20.8616H10.2227L13.2992 23.2835C13.4395 23.3939 13.6163 23.4544 13.7992 23.4544H21.7638C22.1942 23.4544 22.5431 23.126 22.5431 22.7208V20.7212H23.1418V21.8775C23.1418 22.2827 23.4907 22.6111 23.9211 22.6111H25.8458C26.1545 22.6111 26.434 22.4396 26.5587 22.1738L27.7201 19.6981C27.7638 19.6048 27.7865 19.5038 27.7865 19.4018V14.4506C27.7865 14.3486 27.7638 14.2476 27.72 14.1543ZM26.2279 19.2472L25.3381 21.1441H24.7004V19.9877C24.7004 19.5825 24.3515 19.2541 23.9211 19.2541H21.7638C21.3334 19.2541 20.9845 19.5825 20.9845 19.9877V21.9874H14.082L11.0056 19.5655C10.8653 19.455 10.6884 19.3946 10.5056 19.3946H7.97431V11.5214H9.68398C10.1144 11.5214 10.4633 11.1931 10.4633 10.7879V10.1782H18.1304V12.18C18.1304 12.5852 18.4793 12.9135 18.9097 12.9135H20.9845V13.865C20.9845 14.2702 21.3334 14.5985 21.7638 14.5985H23.9211C24.3515 14.5985 24.7004 14.2702 24.7004 13.865V12.7085H25.3381L26.2279 14.6054V19.2472Z" fill="#858585"></path>
</svg>