<svg width="24" height="24" viewBox="0 0 24 24" fill="none" xmlns="http://www.w3.org/2000/svg">
<path d="M19.6 19.6543V4.34571C20.4334 3.99429 20.9846 3.17275 20.9846 2.26154C20.9846 1.01451 19.9701 0 18.7231 0C17.476 0 16.4615 1.01451 16.4615 2.26154C16.4615 3.1728 17.0127 3.99429 17.8462 4.34571V11.0769H12.3692V4.34571C13.2026 3.99429 13.7538 3.17275 13.7538 2.26154C13.7538 1.01451 12.7393 0 11.4923 0C10.2453 0 9.23077 1.01451 9.23077 2.26154C9.23077 3.1728 9.78199 3.99429 10.6154 4.34571V11.0769H5.64615C5.36623 11.0769 5.13846 10.8492 5.13846 10.5692V4.34571C5.97186 3.99429 6.52308 3.1728 6.52308 2.26154C6.52308 1.01451 5.50857 0 4.26154 0C3.01451 0 2 1.01451 2 2.26154C2 3.1728 2.55122 3.99429 3.38462 4.34571V10.5692C3.38462 11.8163 4.39912 12.8308 5.64615 12.8308H10.6154V19.6543C9.78199 20.0057 9.23077 20.8272 9.23077 21.7385C9.23077 22.9855 10.2453 24 11.4923 24C12.7393 24 13.7538 22.9855 13.7538 21.7385C13.7538 20.8272 13.2026 20.0057 12.3692 19.6543V12.8308H17.8462V19.6543C17.0127 20.0057 16.4615 20.8272 16.4615 21.7385C16.4615 22.9855 17.476 24 18.7231 24C19.9701 24 20.9846 22.9855 20.9846 21.7385C20.9846 20.8272 20.4334 20.0057 19.6 19.6543ZM18.7231 22.2462C18.4432 22.2462 18.2154 22.0184 18.2154 21.7385C18.2154 21.4585 18.4432 21.2308 18.7231 21.2308C19.003 21.2308 19.2308 21.4585 19.2308 21.7385C19.2308 22.0184 19.003 22.2462 18.7231 22.2462ZM18.7231 1.75385C19.003 1.75385 19.2308 1.98162 19.2308 2.26154C19.2308 2.54146 19.003 2.76923 18.7231 2.76923C18.4432 2.76923 18.2154 2.54146 18.2154 2.26154C18.2154 1.98162 18.4432 1.75385 18.7231 1.75385ZM11.4923 22.2462C11.2124 22.2462 10.9846 22.0184 10.9846 21.7385C10.9846 21.4585 11.2124 21.2308 11.4923 21.2308C11.7722 21.2308 12 21.4585 12 21.7385C12 22.0184 11.7722 22.2462 11.4923 22.2462ZM11.4923 1.75385C11.7722 1.75385 12 1.98162 12 2.26154C12 2.54146 11.7722 2.76923 11.4923 2.76923C11.2124 2.76923 10.9846 2.54146 10.9846 2.26154C10.9846 1.98162 11.2124 1.75385 11.4923 1.75385ZM4.26154 1.75385C4.54146 1.75385 4.76923 1.98162 4.76923 2.26154C4.76923 2.54146 4.54146 2.76923 4.26154 2.76923C3.98162 2.76923 3.75385 2.54146 3.75385 2.26154C3.75385 1.98162 3.98162 1.75385 4.26154 1.75385Z" fill="#858585"/>
</svg>
