<svg width="24" height="24" viewBox="0 0 24 24" fill="none" xmlns="http://www.w3.org/2000/svg">
<path d="M17.6462 8.67692H19.0308C20.2778 8.67692 21.2923 7.66242 21.2923 6.41538V2.26154C21.2923 1.01451 20.2778 0 19.0308 0H17.6462C16.3991 0 15.3846 1.01451 15.3846 2.26154V3.46154H13.7303C13.3789 2.62814 12.5574 2.07692 11.6462 2.07692C10.7349 2.07692 9.9134 2.62814 9.56198 3.46154H7.90769V2.26154C7.90769 1.01451 6.89318 0 5.64615 0H4.26154C3.01451 0 2 1.01451 2 2.26154V6.41538C2 7.66242 3.01451 8.67692 4.26154 8.67692H5.64615C6.89318 8.67692 7.90769 7.66242 7.90769 6.41538V5.21538H9.56212C9.79072 5.75483 10.2298 6.19394 10.7692 6.42249V11.1767C9.60828 11.271 8.69231 12.2459 8.69231 13.4307V14.8153C8.69231 16.0002 9.60828 16.9752 10.7692 17.0694V18.7846H7.90769V17.5846C7.90769 16.3376 6.89318 15.3231 5.64615 15.3231H4.26154C3.01451 15.3231 2 16.3376 2 17.5846V21.7385C2 22.9855 3.01451 24 4.26154 24H5.64615C6.89318 24 7.90769 22.9855 7.90769 21.7385V20.5385H15.3846V21.7385C15.3846 22.9855 16.3991 24 17.6462 24H19.0308C20.2778 24 21.2923 22.9855 21.2923 21.7385V17.5846C21.2923 16.3376 20.2778 15.3231 19.0308 15.3231H17.6462C16.3991 15.3231 15.3846 16.3376 15.3846 17.5846V18.7846H12.5231V17.0694C13.684 16.9752 14.6 16.0002 14.6 14.8154V13.4308C14.6 12.2459 13.684 11.271 12.5231 11.1767V6.42249C13.0625 6.19389 13.5016 5.75478 13.7302 5.21538H15.3846V6.41538C15.3846 7.66242 16.3991 8.67692 17.6462 8.67692ZM19.5385 6.41538C19.5385 6.69531 19.3107 6.92308 19.0308 6.92308H17.6462C17.3662 6.92308 17.1385 6.69531 17.1385 6.41538V2.26154C17.1385 1.98162 17.3662 1.75385 17.6462 1.75385H19.0308C19.3107 1.75385 19.5385 1.98162 19.5385 2.26154V6.41538ZM11.6462 3.83077C11.9261 3.83077 12.1538 4.05854 12.1538 4.33846C12.1538 4.61838 11.9261 4.84615 11.6462 4.84615C11.3662 4.84615 11.1385 4.61838 11.1385 4.33846C11.1385 4.05854 11.3662 3.83077 11.6462 3.83077ZM10.4462 13.4308C10.4462 13.1508 10.6739 12.9231 10.9538 12.9231H12.3385C12.6184 12.9231 12.8462 13.1508 12.8462 13.4308V14.8154C12.8462 15.0953 12.6184 15.3231 12.3385 15.3231H10.9538C10.6739 15.3231 10.4462 15.0953 10.4462 14.8154V13.4308ZM3.75385 2.26154C3.75385 1.98162 3.98162 1.75385 4.26154 1.75385H5.64615C5.92608 1.75385 6.15385 1.98162 6.15385 2.26154V6.41538C6.15385 6.69531 5.92608 6.92308 5.64615 6.92308H4.26154C3.98162 6.92308 3.75385 6.69531 3.75385 6.41538V2.26154ZM3.75385 17.5846C3.75385 17.3047 3.98162 17.0769 4.26154 17.0769H5.64615C5.92608 17.0769 6.15385 17.3047 6.15385 17.5846V21.7385C6.15385 22.0184 5.92608 22.2462 5.64615 22.2462H4.26154C3.98162 22.2462 3.75385 22.0184 3.75385 21.7385V17.5846ZM19.5385 21.7385C19.5385 22.0184 19.3107 22.2462 19.0308 22.2462H17.6462C17.3662 22.2462 17.1385 22.0184 17.1385 21.7385V17.5846C17.1385 17.3047 17.3662 17.0769 17.6462 17.0769H19.0308C19.3107 17.0769 19.5385 17.3047 19.5385 17.5846V21.7385Z" fill="#858585"/>
</svg>
