<svg width="26" height="24" viewBox="0 0 26 24" fill="none" xmlns="http://www.w3.org/2000/svg">
<path d="M18.2296 11.6716C18.2483 9.34739 16.3212 7.21525 13.9264 6.92072C13.8765 6.91431 13.8266 6.90791 13.7704 6.89511C13.652 6.8759 13.5272 6.85669 13.4087 6.85669C12.916 6.85669 12.7851 7.20885 12.7539 7.42014C12.7227 7.62503 12.7539 7.79791 12.8474 7.93236C13.0096 8.15646 13.2965 8.20128 13.5272 8.2333C13.5958 8.2397 13.6582 8.25251 13.7081 8.26531C15.8535 8.75833 16.5769 9.53307 16.9324 11.7164C16.9386 11.7677 16.9449 11.8381 16.9511 11.9085C16.9636 12.171 17.001 12.7153 17.5685 12.7153C17.6184 12.7153 17.6683 12.7089 17.7182 12.7025C18.2483 12.6192 18.2296 12.1198 18.2234 11.8829C18.2234 11.8125 18.2171 11.7549 18.2234 11.71C18.2296 11.6908 18.2296 11.6844 18.2296 11.6716Z" fill="#8055A0"/>
<path d="M13.2701 6.06899C13.3325 6.07539 13.3948 6.07539 13.4447 6.0882C16.9746 6.64525 18.5962 8.36122 19.0452 12.0109C19.0514 12.0749 19.0514 12.1517 19.0577 12.2285C19.0639 12.5167 19.0701 13.1057 19.6938 13.1185H19.7125C19.9058 13.1185 20.0617 13.0609 20.174 12.9393C20.3673 12.7344 20.3549 12.4206 20.3424 12.1773C20.3424 12.1197 20.3362 12.0621 20.3362 12.0109C20.3736 8.27158 17.2303 4.88446 13.5944 4.76281C13.5819 4.76281 13.5632 4.76281 13.5508 4.76281C13.5445 4.76281 13.532 4.76281 13.5071 4.76281C13.4697 4.76281 13.426 4.76281 13.3824 4.7564C13.3262 4.75 13.2576 4.75 13.1953 4.75C12.6153 4.75 12.5092 5.17259 12.4905 5.4223C12.4593 6.00496 13.0082 6.04338 13.2701 6.06899Z" fill="#8055A0"/>
<path d="M18.871 16.7231C18.7962 16.6655 18.7213 16.6014 18.6465 16.5438C18.2598 16.2237 17.8545 15.9292 17.4553 15.6474C17.3742 15.5898 17.2932 15.5322 17.2121 15.4682C16.7069 15.1032 16.2454 14.9239 15.8151 14.9239C15.2351 14.9239 14.7299 15.2505 14.3121 15.9035C14.125 16.1917 13.9005 16.3325 13.6261 16.3325C13.4639 16.3325 13.2768 16.2813 13.071 16.1917C11.4308 15.4297 10.2645 14.258 9.59722 12.715C9.27292 11.9658 9.37894 11.4792 9.94647 11.0822C10.2708 10.8581 10.8695 10.4356 10.8258 9.63522C10.7759 8.72602 8.81765 5.97922 7.99442 5.67189C7.64517 5.53743 7.27721 5.53743 6.90301 5.67189C5.95505 5.99843 5.27526 6.57468 4.93225 7.33661C4.60171 8.07293 4.62042 8.93731 4.97591 9.8337C6.00495 12.4268 7.45183 14.6934 9.27915 16.5566C11.0691 18.3814 13.2643 19.8797 15.8089 21.0066C16.0396 21.109 16.2766 21.1602 16.4575 21.2051C16.5198 21.2179 16.5697 21.2307 16.6071 21.2435C16.6259 21.2499 16.6508 21.2499 16.6695 21.2499H16.6882C17.8856 21.2499 19.3201 20.1294 19.7629 18.8488C20.1433 17.7219 19.4386 17.1649 18.871 16.7231Z" fill="#8055A0"/>
<path d="M13.8017 9.03336C13.5959 9.03976 13.1718 9.05256 13.0222 9.49436C12.9536 9.70565 12.9598 9.88493 13.0471 10.0322C13.1718 10.2499 13.4151 10.3139 13.6396 10.3523C14.4441 10.4868 14.8557 10.9414 14.9368 11.7866C14.9742 12.1835 15.2362 12.4589 15.5667 12.4589C15.5916 12.4589 15.6166 12.4589 15.6415 12.4525C16.0407 12.4012 16.234 12.1003 16.2153 11.5561C16.2215 10.9862 15.9284 10.3395 15.4357 9.82731C14.943 9.30868 14.3443 9.01415 13.8017 9.03336Z" fill="#8055A0"/>
</svg>
