<?xml version="1.0" encoding="UTF-8"?>
<svg width="47px" height="47px" viewBox="0 0 47 47" version="1.1" xmlns="http://www.w3.org/2000/svg" xmlns:xlink="http://www.w3.org/1999/xlink">
    <title>logo_mobile</title>
    <g id="Listing-shop" stroke="none" stroke-width="1" fill="none" fill-rule="evenodd">
        <g id="Listing-shop-/-iPhone-11-Pro-Copy-2" transform="translate(-11.000000, -95.000000)" fill="#363636" fill-rule="nonzero">
            <g id="logo_mobile" transform="translate(11.000000, 95.000000)">
                <path d="M14.0931587,33.7049976 C12.2231926,33.7049976 10.5128578,32.8612324 9.37263464,31.3561378 C8.25521591,29.8738476 7.89034449,27.9810771 8.3920427,26.1795245 L12.0407569,13.272198 L16.6472586,13.272198 L12.6564774,27.3653566 C12.4740417,27.9810771 12.7248908,28.4371664 12.9073265,28.6652111 C13.0669578,28.8932557 13.4546337,29.2581271 14.0931587,29.2581271 L18.7680738,29.2581271 L23.2833576,13.272198 L27.8898593,13.272198 L23.3745754,29.2581271 L29.8282387,29.2581271 L34.3435226,13.272198 L38.9500243,13.272198 L34.4347404,29.2581271 L46.2930616,29.2581271 C46.7719554,27.4109656 47,25.4725861 47,23.4885978 L47,23.4885978 C47,10.5128578 36.4871422,0 23.5114022,0 L23.5114022,0 C10.5128578,0 0,10.5128578 0,23.5114022 L0,23.5114022 C0,36.4871422 10.5128578,47 23.5114022,47 L23.5114022,47 C32.8384279,47 40.8884037,41.5725376 44.6739447,33.7049976 L14.0931587,33.7049976 Z" id="Path"></path>
            </g>
        </g>
    </g>
</svg>