<svg width="174" height="55" viewBox="0 0 174 55" fill="none" xmlns="http://www.w3.org/2000/svg">
<path d="M58.4742 17.9623L54.2579 32.129C51.7282 32.129 50.2103 32.129 50.0417 31.9603L49.873 31.4544C50.0417 29.9365 50.7163 27.5754 51.7282 24.7083L53.9206 17.7937H49.7044C48.5238 19.8175 46.5 22.5159 43.6329 25.8889C41.2718 28.756 39.4167 30.6111 38.0675 31.4544C37.5615 31.7917 37.0556 31.9603 36.7183 31.9603L36.381 31.7917C36.5496 30.6111 37.0556 28.25 38.2361 24.877L40.5972 17.7937H36.0436L32.3333 30.4425C32.1647 30.9484 31.996 31.4544 31.996 31.9603H27.9484L32.1647 17.7937H27.6111L23.3948 31.9603H17.8294L22.0456 17.7937H17.4921L13.2758 32.129C13.1071 32.129 12.7698 32.129 12.2639 32.129C11.7579 32.129 11.5893 32.129 11.252 32.129C9.22817 32.129 8.21627 31.623 8.21627 30.6111C8.21627 30.1052 11.5893 20.4921 12.6012 17.625H8.21627L4.84325 28.0814C4.16865 29.5992 4 30.7798 4 31.623C4 33.3095 4.6746 34.6587 6.02381 35.502C7.20437 36.1766 8.55357 36.5139 10.4087 36.5139H35.0317C35.2004 36.5139 35.369 36.5139 35.5377 36.5139C38.4048 36.5139 41.9464 34.1528 46.3313 29.2619C45.8254 31.1171 45.4881 32.129 45.4881 32.6349C45.4881 35.3333 47.3433 36.6825 51.2222 36.6825H57.631L63.1964 18.131H58.4742V17.9623ZM172.988 18.6369C172.482 18.131 171.47 17.9623 170.121 17.9623H155.448L153.256 22.1786H169.278C169.278 24.371 168.603 26.5635 167.254 28.5873C166.073 30.4425 164.893 31.4544 163.544 31.9603H160.845C159.833 31.4544 159.496 30.6111 159.496 28.9246C159.496 27.5754 159.833 25.8889 160.677 24.0337H156.123C155.448 25.8889 155.111 27.744 155.111 29.2619C155.111 30.2738 155.28 31.1171 155.448 31.7917H151.907C149.883 31.7917 148.871 31.1171 148.871 29.5992C148.871 28.5873 149.208 26.9008 150.052 24.877C150.895 22.8532 151.232 21.1667 151.232 20.1548C151.232 18.4683 150.22 17.625 148.365 17.625H124.417L123.067 22.0099H126.609L123.573 31.9603H116.49C117.165 31.1171 118.008 29.2619 118.851 26.2262C119.694 23.3591 120.2 21.504 120.2 20.4921C120.2 18.4683 118.851 17.4563 116.321 17.4563C112.611 17.4563 109.238 19.4802 106.034 23.3591L107.046 19.8175C113.286 17.2877 117.165 12.9028 118.683 7H109.407C108.226 7 107.214 7.16865 106.54 7.6746C105.865 8.18056 105.359 9.02381 105.022 10.2044L103.673 14.9266L103.167 16.7817C102.155 17.119 101.143 17.2877 100.131 17.4563L99.9623 21.6726C100.468 21.504 101.143 21.504 101.817 21.3353L98.6131 32.129H95.5774C94.5655 32.129 93.7222 31.9603 93.3849 31.9603L93.0476 31.4544C94.3968 26.5635 95.746 22.0099 97.0952 17.9623H82.5913C81.2421 17.9623 80.2302 18.131 79.5556 18.6369C78.881 19.1429 78.375 19.9861 77.869 21.3353C77.0258 23.8651 76.3512 25.7202 76.0139 27.0694C75.3393 29.0933 75.002 30.7798 74.8333 32.129H71.4603C70.7857 32.129 70.4484 31.7917 70.4484 31.2857V31.1171C71.4603 28.5873 71.7976 26.7321 71.7976 26.0575C71.7976 25.0456 71.2917 24.371 70.4484 24.0337C69.9425 23.8651 69.0992 23.6964 67.9187 23.6964L73.9901 17.9623H68.256L64.7143 21.1667C62.6905 23.0218 61.6786 24.5397 61.6786 25.7202C61.6786 26.9008 62.6905 27.5754 64.8829 27.5754C65.0516 27.5754 65.3889 27.5754 65.8948 27.5754C66.4008 27.5754 66.7381 27.5754 66.9067 27.5754C66.5694 28.756 66.2321 29.5992 66.0635 30.1052C65.7262 31.1171 65.5575 31.9603 65.5575 32.8036C65.5575 34.1528 66.2321 35.1647 67.4127 35.8393C68.4246 36.3452 69.6052 36.6825 70.9544 36.6825H77.3631C77.5317 36.6825 77.7004 36.6825 77.869 36.6825C79.8929 36.6825 81.9167 35.8393 84.1091 34.1528C85.2897 33.3095 86.8075 31.623 89 29.4306C88.494 31.1171 88.1567 32.129 88.1567 32.8036C88.1567 35.502 90.0119 36.8512 93.8909 36.8512H126.44L130.657 22.6845H136.054L131.837 36.8512H136.391L140.607 22.6845H146.51C145.835 24.5397 145.498 25.8889 145.161 26.7321C144.655 28.25 144.317 29.7679 144.317 30.9484C144.317 32.9722 145.161 34.4901 146.679 35.502C148.028 36.3452 149.714 36.8512 151.907 36.8512H159.665H159.833C160.171 36.8512 160.508 36.8512 160.845 36.8512C165.399 36.6825 167.085 35.1647 169.615 32.6349C170.458 31.7917 171.133 30.9484 171.639 30.1052C171.976 29.4306 172.313 28.5873 172.651 27.744C173.494 25.5516 174 23.6964 174 22.0099C174 20.1548 173.663 19.1429 172.988 18.6369ZM108.732 12.5655C109.069 11.3849 109.744 10.879 110.587 10.879H112.442C111.599 12.5655 110.081 14.0833 107.889 15.2639L108.732 12.5655ZM79.7242 32.129L79.3869 31.7917C79.7242 30.4425 80.0615 28.756 80.7361 26.9008C81.4107 24.7083 81.9167 23.1905 82.254 22.1786H90.5179C85.121 28.4187 81.4107 31.7917 79.7242 32.129ZM115.31 22.5159L113.286 29.4306C112.78 31.1171 111.431 32.129 109.407 32.129H103.504C104.516 30.6111 106.202 28.5873 108.732 26.0575C111.599 23.1905 113.623 21.6726 114.635 21.6726C114.804 21.6726 114.972 21.6726 115.141 21.8413C115.31 22.1786 115.31 22.3472 115.31 22.5159Z" fill="white"/>
<path d="M128.192 12L129.872 3.6H133.46C134.54 3.6 135.372 3.836 135.956 4.308C136.548 4.78 136.844 5.436 136.844 6.276C136.844 6.98 136.672 7.596 136.328 8.124C135.992 8.644 135.512 9.048 134.888 9.336C134.264 9.624 133.528 9.768 132.68 9.768H129.956L131.216 8.748L130.568 12H128.192ZM133.46 12L131.744 8.94H134.204L135.944 12H133.46ZM131.156 9.024L130.328 7.932H132.788C133.316 7.932 133.724 7.808 134.012 7.56C134.3 7.312 134.444 6.96 134.444 6.504C134.444 6.152 134.328 5.892 134.096 5.724C133.864 5.556 133.54 5.472 133.124 5.472H130.832L132.104 4.344L131.156 9.024ZM143.279 6.852H147.179L146.831 8.628H142.931L143.279 6.852ZM142.787 10.164H147.191L146.807 12H140.075L141.755 3.6H148.331L147.959 5.436H143.723L142.787 10.164ZM151.137 12L152.817 3.6H154.773L158.169 9.216L157.353 9.192L158.469 3.6H160.797L159.117 12H157.161L153.777 6.384L154.581 6.408L153.465 12H151.137ZM165.581 12L166.889 5.484H164.309L164.693 3.6H172.217L171.833 5.484H169.265L167.957 12H165.581Z" fill="white"/>
<path d="M4.5 42H167L163.5 55H0.5L4.5 42Z" fill="#FF0024"/>
<path d="M6.54 52L11.06 45H12.67L14.39 52H12.77L11.41 45.8H12.05L8.27 52H6.54ZM8.41 50.5L9.07 49.27H12.68L12.87 50.5H8.41ZM16.0783 52L17.4783 45H20.3083C21.1816 45 21.8549 45.1933 22.3283 45.58C22.8083 45.96 23.0483 46.4933 23.0483 47.18C23.0483 47.7667 22.9116 48.28 22.6383 48.72C22.3649 49.1533 21.9716 49.4867 21.4583 49.72C20.9516 49.9533 20.3483 50.07 19.6483 50.07H17.3783L18.2383 49.33L17.7083 52H16.0783ZM18.1983 49.52L17.6283 48.75H19.7183C20.2516 48.75 20.6649 48.63 20.9583 48.39C21.2583 48.1433 21.4083 47.7867 21.4083 47.32C21.4083 46.98 21.2949 46.73 21.0683 46.57C20.8416 46.4033 20.5216 46.32 20.1083 46.32H18.1383L18.9983 45.53L18.1983 49.52ZM26.4748 47.82H29.8448L29.5948 49.08H26.2248L26.4748 47.82ZM26.0148 50.7H29.8348L29.5648 52H24.1448L25.5448 45H30.8348L30.5648 46.3H26.8948L26.0148 50.7ZM37.8734 45H39.4934L38.0934 52H36.4734L37.8734 45ZM33.3034 52H31.6734L33.0734 45H34.7034L33.3034 52ZM37.1734 49.13H33.7634L34.0334 47.76H37.4434L37.1734 49.13ZM45.3784 51.28L46.3684 46.32H43.9784L43.7184 47.4C43.6184 47.8333 43.5117 48.2433 43.3984 48.63C43.2917 49.01 43.175 49.3567 43.0484 49.67C42.9217 49.9833 42.7784 50.25 42.6184 50.47C42.465 50.69 42.2917 50.8467 42.0984 50.94L40.3084 50.68C40.5484 50.6867 40.7684 50.6 40.9684 50.42C41.1684 50.24 41.3484 49.99 41.5084 49.67C41.675 49.3433 41.825 48.9633 41.9584 48.53C42.0984 48.0967 42.2284 47.63 42.3484 47.13L42.8584 45H48.2384L46.9784 51.28H45.3784ZM39.5884 53.45L40.1484 50.68H48.0884L47.5284 53.45H46.0284L46.3184 52H41.3784L41.0884 53.45H39.5884ZM48.9482 52L53.4682 45H55.0782L56.7982 52H55.1782L53.8182 45.8H54.4582L50.6782 52H48.9482ZM50.8182 50.5L51.4782 49.27H55.0882L55.2782 50.5H50.8182ZM62.1685 52L63.5685 45H69.9385L68.5385 52H66.9385L68.1185 45.95L68.4085 46.32H64.5085L64.9585 45.95L63.7685 52H62.1685ZM71.0338 52L72.4338 45H75.2638C76.1371 45 76.8104 45.1933 77.2838 45.58C77.7638 45.96 78.0038 46.4933 78.0038 47.18C78.0038 47.7667 77.8671 48.28 77.5938 48.72C77.3204 49.1533 76.9271 49.4867 76.4138 49.72C75.9071 49.9533 75.3038 50.07 74.6038 50.07H72.3338L73.1938 49.33L72.6638 52H71.0338ZM73.1538 49.52L72.5838 48.75H74.6738C75.2071 48.75 75.6204 48.63 75.9138 48.39C76.2138 48.1433 76.3638 47.7867 76.3638 47.32C76.3638 46.98 76.2504 46.73 76.0238 46.57C75.7971 46.4033 75.4771 46.32 75.0638 46.32H73.0938L73.9538 45.53L73.1538 49.52ZM81.4303 47.82H84.8003L84.5503 49.08H81.1803L81.4303 47.82ZM80.9703 50.7H84.7903L84.5203 52H79.1003L80.5003 45H85.7903L85.5203 46.3H81.8503L80.9703 50.7ZM86.6388 52L88.0388 45H89.3588L91.3488 49.96L90.6488 49.95L94.5188 45H95.9088L94.5188 52H93.0088L93.9388 47.31H94.2388L91.1588 51.26H90.4288L88.7888 47.3L89.0788 47.33L88.1488 52H86.6388ZM97.0677 52L98.4677 45H100.068L99.1377 49.56L103.388 45H104.928L103.528 52H101.928L102.868 47.45L98.6077 52H97.0677ZM106.511 50.66C106.751 50.74 106.971 50.7767 107.171 50.77C107.377 50.7633 107.574 50.7133 107.761 50.62C107.954 50.52 108.134 50.37 108.301 50.17L108.741 49.71L108.921 49.54L112.171 45H113.791L109.711 50.59C109.351 51.0833 108.964 51.4567 108.551 51.71C108.137 51.9633 107.711 52.1 107.271 52.12C106.831 52.14 106.397 52.0533 105.971 51.86L106.511 50.66ZM108.711 50.89L106.701 45H108.391L109.791 49.7L108.711 50.89ZM113.98 52L115.38 45H116.7L118.69 49.96L117.99 49.95L121.86 45H123.25L121.86 52H120.35L121.28 47.31H121.58L118.5 51.26H117.77L116.13 47.3L116.42 47.33L115.49 52H113.98ZM127.241 52L131.761 45H133.371L135.091 52H133.471L132.111 45.8H132.751L128.971 52H127.241ZM129.111 50.5L129.771 49.27H133.381L133.571 50.5H129.111ZM136.779 52L138.179 45H141.559C142.319 45 142.899 45.1367 143.299 45.41C143.706 45.6833 143.909 46.08 143.909 46.6C143.909 47.04 143.793 47.41 143.559 47.71C143.333 48.01 143.029 48.2367 142.649 48.39C142.269 48.5433 141.856 48.62 141.409 48.62L141.669 48.22C142.256 48.22 142.723 48.3567 143.069 48.63C143.423 48.8967 143.599 49.2833 143.599 49.79C143.599 50.2833 143.463 50.6967 143.189 51.03C142.923 51.3567 142.553 51.6 142.079 51.76C141.606 51.92 141.063 52 140.449 52H136.779ZM138.639 50.78H140.549C140.996 50.78 141.346 50.6967 141.599 50.53C141.859 50.3567 141.989 50.1033 141.989 49.77C141.989 49.51 141.893 49.3267 141.699 49.22C141.513 49.1067 141.259 49.05 140.939 49.05H138.799L139.039 47.87H140.859C141.139 47.87 141.379 47.8333 141.579 47.76C141.786 47.6867 141.943 47.5767 142.049 47.43C142.156 47.2767 142.209 47.0933 142.209 46.88C142.209 46.6467 142.119 46.48 141.939 46.38C141.759 46.2733 141.506 46.22 141.179 46.22H139.539L138.639 50.78ZM146.678 52L147.868 45.95L148.158 46.32H145.588L145.848 45H151.918L151.658 46.32H149.028L149.468 45.95L148.278 52H146.678ZM155.848 52.12C155.141 52.12 154.531 51.9933 154.018 51.74C153.511 51.48 153.121 51.1233 152.848 50.67C152.574 50.21 152.438 49.68 152.438 49.08C152.438 48.48 152.541 47.9267 152.748 47.42C152.954 46.9067 153.248 46.4633 153.628 46.09C154.014 45.71 154.471 45.4133 154.998 45.2C155.531 44.9867 156.121 44.88 156.768 44.88C157.474 44.88 158.081 45.01 158.588 45.27C159.101 45.5233 159.494 45.88 159.768 46.34C160.041 46.7933 160.178 47.32 160.178 47.92C160.178 48.52 160.074 49.0767 159.868 49.59C159.661 50.0967 159.364 50.54 158.978 50.92C158.598 51.2933 158.141 51.5867 157.608 51.8C157.081 52.0133 156.494 52.12 155.848 52.12ZM155.988 50.74C156.381 50.74 156.734 50.67 157.048 50.53C157.368 50.3833 157.638 50.1833 157.858 49.93C158.078 49.6767 158.244 49.3867 158.358 49.06C158.478 48.7267 158.538 48.3767 158.538 48.01C158.538 47.6633 158.464 47.36 158.318 47.1C158.171 46.8333 157.954 46.6267 157.668 46.48C157.388 46.3333 157.041 46.26 156.628 46.26C156.234 46.26 155.881 46.3333 155.568 46.48C155.254 46.62 154.984 46.8167 154.758 47.07C154.538 47.3233 154.368 47.6167 154.248 47.95C154.134 48.2767 154.078 48.6233 154.078 48.99C154.078 49.3367 154.151 49.6433 154.298 49.91C154.451 50.17 154.668 50.3733 154.948 50.52C155.234 50.6667 155.581 50.74 155.988 50.74Z" fill="white"/>
</svg>
