<?xml version="1.0" standalone="no"?>
<!DOCTYPE svg PUBLIC "-//W3C//DTD SVG 20010904//EN"
 "http://www.w3.org/TR/2001/REC-SVG-20010904/DTD/svg10.dtd">
<svg version="1.0" xmlns="http://www.w3.org/2000/svg"
 width="700.000000pt" height="700.000000pt" viewBox="0 0 700.000000 700.000000"
 preserveAspectRatio="xMidYMid meet">
<metadata>
Created by potrace 1.14, written by Peter Selinger 2001-2017
</metadata>
<g transform="translate(0.000000,700.000000) scale(0.100000,-0.100000)"
fill="#000000" stroke="none">
<path d="M3278 6996 c-1 -2 -42 -6 -89 -10 -47 -4 -95 -8 -105 -10 -10 -2 -41
-7 -69 -10 -348 -45 -723 -161 -1056 -325 -164 -81 -211 -107 -256 -138 -17
-13 -34 -23 -38 -23 -12 0 -217 -143 -319 -223 -437 -339 -815 -818 -1028
-1300 -27 -62 -53 -121 -58 -132 -46 -95 -150 -427 -176 -560 -2 -11 -10 -54
-19 -95 -47 -238 -60 -384 -60 -675 0 -193 5 -299 20 -409 2 -17 6 -56 10 -86
3 -30 15 -99 26 -153 179 -910 672 -1673 1428 -2211 67 -47 123 -86 126 -86 3
0 36 -20 75 -45 94 -60 331 -181 457 -233 306 -126 609 -207 933 -247 209 -26
680 -26 841 0 13 2 47 7 74 10 86 12 90 13 200 34 194 38 549 146 627 191 10
5 22 10 27 10 19 0 302 139 399 196 434 254 796 582 1091 989 48 66 97 136
108 155 102 167 207 359 200 366 -2 2 -1047 4 -2323 4 -2234 1 -2322 1 -2405
19 -270 60 -488 229 -611 476 -20 40 -58 139 -63 165 -1 3 -5 25 -9 50 -5 25
-10 54 -12 65 -6 30 -6 174 0 220 8 63 26 134 76 305 11 36 29 99 40 140 12
41 30 104 40 140 39 135 152 536 156 554 2 10 12 48 24 85 20 65 198 695 220
779 6 23 14 42 18 43 30 4 666 3 672 -1 4 -3 -17 -90 -47 -195 -30 -104 -56
-197 -58 -205 -3 -14 -83 -296 -155 -545 -17 -60 -33 -117 -35 -125 -5 -23
-173 -617 -195 -690 -25 -82 -90 -315 -99 -355 -16 -68 12 -149 70 -205 57
-54 80 -57 479 -56 l365 1 92 325 c51 179 134 471 184 650 50 179 111 393 134
475 24 83 80 281 125 440 44 160 90 319 100 355 11 36 22 77 26 93 3 15 11 30
17 34 17 10 677 9 677 -1 0 -5 -21 -81 -46 -169 -25 -88 -48 -168 -50 -176 -2
-9 -24 -88 -49 -176 -25 -88 -61 -214 -79 -280 -19 -66 -53 -185 -76 -265 -22
-80 -42 -152 -44 -160 -3 -8 -18 -64 -36 -125 -17 -60 -55 -195 -85 -300 -104
-373 -174 -621 -188 -667 -14 -43 -13 -48 2 -52 9 -2 225 -3 480 -3 l464 2 94
330 c51 182 102 362 112 400 11 39 43 151 71 250 28 99 62 218 75 265 54 195
119 426 217 769 l103 364 333 1 c184 1 338 -1 342 -4 5 -3 -4 -50 -20 -105
-15 -55 -90 -318 -165 -585 -175 -621 -386 -1367 -435 -1540 -21 -74 -37 -138
-35 -141 3 -3 399 -5 881 -5 l878 1 18 70 c25 99 59 306 74 450 9 88 11 527 3
617 -13 139 -21 208 -39 308 -6 36 -13 79 -16 95 -27 156 -136 515 -204 670
-353 808 -933 1419 -1704 1796 -90 43 -170 79 -178 79 -7 0 -18 4 -23 9 -6 5
-50 23 -100 41 -49 18 -97 35 -105 38 -22 8 -24 8 -155 46 -112 33 -302 76
-405 92 -25 3 -54 8 -65 10 -10 2 -49 6 -85 10 -36 3 -76 8 -90 11 -27 5 -536
14 -542 9z"/>
</g>
</svg>
